0
SECTION
2
HEADER
9
$INSUNITS
70
4
9
$ACADVER
1
AC1014
9
$HANDSEED
5
FFFF
0
ENDSEC
0
SECTION
2
TABLES
0
TABLE
2
VPORT
5
8
100
AcDbSymbolTable
0
ENDTAB
0
TABLE
2
LTYPE
5
5
100
AcDbSymbolTable
0
LTYPE
5
14
100
AcDbSymbolTableRecord
100
AcDbLinetypeTableRecord
2
BYBLOCK
70
0
0
LTYPE
5
15
100
AcDbSymbolTableRecord
100
AcDbLinetypeTableRecord
2
BYLAYER
70
0
0
ENDTAB
0
TABLE
2
LAYER
5
2
100
AcDbSymbolTable
70
2
0
LAYER
5
50
100
AcDbSymbolTableRecord
100
AcDbLayerTableRecord
2
0
70
0
6
CONTINUOUS
0
ENDTAB
0
TABLE
2
STYLE
5
3
100
AcDbSymbolTable
70
1
0
STYLE
5
11
100
AcDbSymbolTableRecord
100
AcDbTextStyleTableRecord
2
STANDARD
70
0
0
ENDTAB
0
TABLE
2
VIEW
5
6
100
AcDbSymbolTable
70
0
0
ENDTAB
0
TABLE
2
UCS
5
7
100
AcDbSymbolTable
70
0
0
ENDTAB
0
TABLE
2
APPID
5
9
100
AcDbSymbolTable
70
2
0
APPID
5
12
100
AcDbSymbolTableRecord
100
AcDbRegAppTableRecord
2
ACAD
70
0
0
ENDTAB
0
TABLE
2
DIMSTYLE
5
A
100
AcDbSymbolTable
70
1
0
ENDTAB
0
TABLE
2
BLOCK_RECORD
5
1
100
AcDbSymbolTable
70
1
0
BLOCK_RECORD
5
1F
100
AcDbSymbolTableRecord
100
AcDbBlockTableRecord
2
*MODEL_SPACE
0
BLOCK_RECORD
5
1B
100
AcDbSymbolTableRecord
100
AcDbBlockTableRecord
2
*PAPER_SPACE
0
ENDTAB
0
ENDSEC
0
SECTION
2
BLOCKS
0
BLOCK
5
20
100
AcDbEntity
100
AcDbBlockBegin
2
*MODEL_SPACE
0
ENDBLK
5
21
100
AcDbEntity
100
AcDbBlockEnd
0
BLOCK
5
1C
100
AcDbEntity
100
AcDbBlockBegin
2
*PAPER_SPACE
0
ENDBLK
5
1D
100
AcDbEntity
100
AcDbBlockEnd
0
ENDSEC
0
SECTION
2
ENTITIES
0
LINE
5
100
100
AcDbEntity
8
0
100
AcDbLine
10
15.17699841994575
20
-2.499999718308672
30
1.9721522630525295e-30
11
17.243371352152877
21
-2.4999997183086631
31
2.0029671421627253e-30
0
ARC
5
101
100
AcDbEntity
8
0
100
AcDbCircle
10
15.879170477217455
20
-4.6122882704665091
30
0
40
2.5145192293461696
210
1.7381276397984745e-31
220
-2.1812109950885171e-31
230
1
100
AcDbArc
50
-6.449934295305189
51
57.144000152422954
0
SPLINE
5
102
100
AcDbEntity
8
0
100
AcDbSpline
70
0
71
3
72
12
73
8
74
0
42
0.000000001
43
0.0000000001
44
0.0000000001
40
0
40
0
40
0
40
0
40
0.33017161869464023
40
0.33017161869464023
40
0.47266573792228805
40
0.47266573792228805
40
0.60490308395947756
40
0.60490308395947756
40
0.60490308395947756
40
0.60490308395947756
10
19.924250212397052
20
-9.4677064667059252
30
3.944304526105059e-30
10
19.353506002854775
20
-8.526691104651043
30
0
10
18.959218524512735
20
-7.6405657863062615
30
0
10
18.602316795958252
20
-6.5179082778751685
30
1.9721522630525295e-30
10
18.515985688051195
20
-6.1798413739217128
30
1.9721522630525295e-30
10
18.397061706532103
20
-5.5281130209308671
30
3.944304526105059e-30
10
18.347991876411129
20
-5.1581956757101199
30
0
10
18.377773792077299
20
-4.8947567283926574
30
1.9721522630525295e-30
0
ARC
5
103
100
AcDbEntity
8
0
100
AcDbCircle
10
20.922573866433943
20
17.513830737146826
30
2.8647795480040479e-42
40
27.000000000020368
210
1.5398414151464826e-33
220
1.4612834088011082e-31
230
1
100
AcDbArc
50
267.8810083927537
51
272.11899160724641
0
SPLINE
5
104
100
AcDbEntity
8
0
100
AcDbSpline
70
0
71
3
72
12
73
8
74
0
42
0.000000001
43
0.0000000001
44
0.0000000001
40
0
40
0
40
0
40
0
40
0.069666853523197014
40
0.069666853523197014
40
0.18224377967341848
40
0.18224377967341848
40
0.29033000186171515
40
0.29033000186171515
40
0.29033000186171515
40
0.29033000186171515
10
23.467373940790711
20
-4.8947567283926663
30
1.9721522630525295e-30
10
23.493460688578658
20
-5.1255096944963618
30
3.944304526105059e-30
10
23.448883867600671
20
-5.4641313897248978
30
3.944304526105059e-30
10
23.388485112383922
20
-5.8922464692461052
30
0
10
23.290948052666668
20
-6.4556420855238628
30
1.9721522630525295e-30
10
22.71869479085213
20
-8.0220676584259376
30
1.9721522630525295e-30
10
22.343685797493759
20
-8.7706336678521968
30
3.944304526105059e-30
10
21.92089752047093
20
-9.4677064667059252
30
1.9721522630525295e-30
0
ARC
5
105
100
AcDbEntity
8
0
100
AcDbCircle
10
25.965977255651602
20
-4.6122882704670332
30
0
40
2.5145192293471657
210
2.4161060750464363e-32
220
-2.1916557668051476e-31
230
1
100
AcDbArc
50
122.85599984759087
51
186.44993429529083
0
LINE
5
106
100
AcDbEntity
8
0
100
AcDbLine
10
24.60177638071513
20
-2.4999997183086808
30
4.9590147886461152e-31
11
26.668149312922257
21
-2.4999997183086897
31
0
0
ARC
5
107
100
AcDbEntity
8
0
100
AcDbCircle
10
25.303948437986833
20
-4.6122882704665358
30
-3.944304526105059e-30
40
2.51451922934617
210
-1.6912936657276248e-31
220
-1.7935130592097409e-31
230
1
100
AcDbArc
50
-6.4499342953047822
51
57.144000152422926
0
SPLINE
5
108
100
AcDbEntity
8
0
100
AcDbSpline
70
0
71
3
72
12
73
8
74
0
42
0.000000001
43
0.0000000001
44
0.0000000001
40
0
40
0
40
0
40
0
40
0.33017162026867353
40
0.33017162026867353
40
0.47266574093904801
40
0.47266574093904801
40
0.60490308830714523
40
0.60490308830714523
40
0.60490308830714523
40
0.60490308830714523
10
29.349028173166435
20
-9.4677064667059252
30
1.9721522630525295e-30
10
28.778283960903231
20
-8.5266911001649248
30
1.9721522630525295e-30
10
28.383996483916789
20
-7.6405657820107464
30
3.944304526105059e-30
10
28.027094756740425
20
-6.5179082779157671
30
0
10
27.940763648813125
20
-6.1798413738815494
30
0
10
27.821839667311835
20
-5.5281130209870089
30
0
10
27.772769837179432
20
-5.158195675719659
30
3.944304526105059e-30
10
27.802551752846675
20
-4.8947567283926663
30
3.944304526105059e-30
0
ARC
5
109
100
AcDbEntity
8
0
100
AcDbCircle
10
30.347351827203319
20
17.51383073714042
30
3.9443045261089911e-30
40
27.000000000013962
210
-4.2048487146701248e-34
220
-7.3077099653982364e-32
230
1
100
AcDbArc
50
267.88100839275324
51
272.11899160724693
0
SPLINE
5
110
100
AcDbEntity
8
0
100
AcDbSpline
70
0
71
3
72
12
73
8
74
0
42
0.000000001
43
0.0000000001
44
0.0000000001
40
0
40
0
40
0
40
0
40
0.069666853526094696
40
0.069666853526094696
40
0.18224377970161781
40
0.18224377970161781
40
0.29033000191064912
40
0.29033000191064912
40
0.29033000191064912
40
0.29033000191064912
10
32.892151901560098
20
-4.8947567283926752
30
0
10
32.918238649348901
20
-5.1255096945059986
30
3.944304526105059e-30
10
32.873661828367716
20
-5.4641313897414445
30
0
10
32.813263073150239
20
-5.8922464692677945
30
0
10
32.71572601346444
20
-6.455642085445632
30
1.9721522630525295e-30
10
32.143472751603497
20
-8.0220676584757733
30
0
10
31.768463758270748
20
-8.7706336678396646
30
0
10
31.345675481240313
20
-9.4677064667059341
30
1.9721522630525295e-30
0
ARC
5
111
100
AcDbEntity
8
0
100
AcDbCircle
10
35.390755216420985
20
-4.6122882704670509
30
0
40
2.5145192293471648
210
-2.4850205556633886e-31
220
-1.6049261890886596e-31
230
1
100
AcDbArc
50
122.85599984759087
51
186.44993429529063
0
LINE
5
112
100
AcDbEntity
8
0
100
AcDbLine
10
34.026554341484513
20
-2.4999997183086968
30
7.973169234637855e-46
11
36.092927273691643
21
-2.4999997183086897
31
3.944304526105059e-30
0
ARC
5
113
100
AcDbEntity
8
0
100
AcDbCircle
10
34.728726398756216
20
-4.6122882704665358
30
3.944304526105059e-30
40
2.51451922934617
210
1.2482103104376168e-31
220
-2.1258255756772468e-31
230
1
100
AcDbArc
50
-6.4499342953047822
51
57.144000152422841
0
SPLINE
5
114
100
AcDbEntity
8
0
100
AcDbSpline
70
0
71
3
72
12
73
8
74
0
42
0.000000001
43
0.0000000001
44
0.0000000001
40
0
40
0
40
0
40
0
40
0.3301716188926907
40
0.3301716188926907
40
0.47266573829913505
40
0.47266573829913505
40
0.60490308450349617
40
0.60490308450349617
40
0.60490308450349617
40
0.60490308450349617
10
38.773806133935814
20
-9.4677064667059252
30
3.944304526105059e-30
10
38.203061924051177
20
-8.5266911040865878
30
1.9721522630525295e-30
10
37.808774445923319
20
-7.6405657859037035
30
1.9721522630525295e-30
10
37.451872717481869
20
-6.5179082778272424
30
1.9721522630525295e-30
10
37.365541609587702
20
-6.1798413739095714
30
1.9721522630525295e-30
10
37.246617628072407
20
-5.5281130209391627
30
0
10
37.197547797949731
20
-5.1581956757115499
30
0
10
37.227329713616058
20
-4.8947567283926663
30
3.944304526105059e-30
0
ARC
5
115
100
AcDbEntity
8
0
100
AcDbCircle
10
39.772129787972695
20
17.513830737140598
30
3.9443045261052272e-30
40
27.00000000001414
210
-3.8616572228880954e-33
220
1.4288228725062449e-34
230
1
100
AcDbArc
50
267.88100839275324
51
272.11899160724693
0
SPLINE
5
116
100
AcDbEntity
8
0
100
AcDbSpline
70
0
71
3
72
12
73
8
74
0
42
0.000000001
43
0.0000000001
44
0.0000000001
40
0
40
0
40
0
40
0
40
0.069666853522389771
40
0.069666853522389771
40
0.18224377967169808
40
0.18224377967169808
40
0.29033000185930419
40
0.29033000185930419
40
0.29033000185930419
40
0.29033000185930419
10
42.316929862329474
20
-4.8947567283926752
30
0
10
42.343016610117175
20
-5.1255096944936973
30
0
10
42.298439789140048
20
-5.4641313897204213
30
1.9721522630525295e-30
10
42.238041033921547
20
-5.8922464692542764
30
1.9721522630525295e-30
10
42.140503974219811
20
-6.4556420854840102
30
1.9721522630525295e-30
10
41.568250712376617
20
-8.0220676584655237
30
0
10
41.193241718969198
20
-8.7706336679570107
30
1.9721522630525295e-30
10
40.770453442009689
20
-9.4677064667059341
30
1.9721522630525295e-30
0
ARC
5
117
100
AcDbEntity
8
0
100
AcDbCircle
10
44.815533177190368
20
-4.6122882704670509
30
3.944304526105059e-30
40
2.5145192293471657
210
0
220
0
230
1
100
AcDbArc
50
122.85599984759087
51
186.44993429529063
0
LINE
5
118
100
AcDbEntity
8
0
100
AcDbLine
10
43.451332302253896
20
-2.4999997183086986
30
3.944304526105059e-30
11
45.517705234461019
21
-2.4999997183086897
31
3.944304526105059e-30
0
ARC
5
119
100
AcDbEntity
8
0
100
AcDbCircle
10
44.153504359525598
20
-4.6122882704665358
30
0
40
2.514519229346166
210
-1.4697519880826218e-31
220
1.6615625823375899e-32
230
1
100
AcDbArc
50
-6.4499342953049856
51
57.144000152422976
0
SPLINE
5
120
100
AcDbEntity
8
0
100
AcDbSpline
70
0
71
3
72
12
73
8
74
0
42
0.000000001
43
0.0000000001
44
0.0000000001
40
0
40
0
40
0
40
0
40
0.33017161959668578
40
0.33017161959668578
40
0.47266573964514091
40
0.47266573964514091
40
0.60490308644110202
40
0.60490308644110202
40
0.60490308644110202
40
0.60490308644110202
10
48.19858409470519
20
-9.467706466705943
30
3.944304526105059e-30
10
47.627839883603606
20
-8.5266911020801572
30
3.944304526105059e-30
10
47.23355240602956
20
-7.6405657838166707
30
1.9721522630525295e-30
10
46.876650678282076
20
-6.5179082779247288
30
1.9721522630525295e-30
10
46.790319570357937
20
-6.1798413739142699
30
1.9721522630525295e-30
10
46.671395588842813
20
-5.5281130209447937
30
1.9721522630525295e-30
10
46.622325758719157
20
-5.1581956757109815
30
1.9721522630525295e-30
10
46.652107674385441
20
-4.8947567283926752
30
1.9721522630525295e-30
0
ARC
5
121
100
AcDbEntity
8
0
100
AcDbCircle
10
49.196907748742063
20
17.513830737140466
30
7.8886090522109953e-30
40
27.000000000014026
210
-5.0273355266601309e-35
220
-1.4618345527266419e-31
230
1
100
AcDbArc
50
267.88100839275324
51
272.11899160724698
0
SPLINE
5
122
100
AcDbEntity
8
0
100
AcDbSpline
70
0
71
3
72
12
73
8
74
0
42
0.000000001
43
0.0000000001
44
0.0000000001
40
0
40
0
40
0
40
0
40
0.069666853523192754
40
0.069666853523192754
40
0.1822437796833451
40
0.1822437796833451
40
0.29033000187547547
40
0.29033000187547547
40
0.29033000187547547
40
0.29033000187547547
10
51.741707823098857
20
-4.8947567283926929
30
0
10
51.767794570886821
20
-5.1255096944963796
30
0
10
51.723217749908642
20
-5.4641313897260435
30
1.9721522630525295e-30
10
51.662818994689026
20
-5.8922464692677501
30
1.9721522630525295e-30
10
51.565281935025368
20
-6.4556420853844898
30
0
10
50.993028673126524
20
-8.022067658519294
30
1.9721522630525295e-30
10
50.61801967976298
20
-8.7706336679165808
30
1.9721522630525295e-30
10
50.195231402779072
20
-9.467706466705943
30
3.944304526105059e-30
0
ARC
5
123
100
AcDbEntity
8
0
100
AcDbCircle
10
54.24031113795975
20
-4.6122882704670509
30
1.9721522630525295e-30
40
2.5145192293471657
210
0
220
0
230
1
100
AcDbArc
50
122.85599984759087
51
186.44993429529103
0
LINE
5
124
100
AcDbEntity
8
0
100
AcDbLine
10
52.876110263023278
20
-2.4999997183086986
30
1.9721522630525295e-30
11
54.942483195230395
21
-2.4999997183087075
31
1.9721522630525295e-30
0
ARC
5
125
100
AcDbEntity
8
0
100
AcDbCircle
10
53.578282320294981
20
-4.6122882704665535
30
1.9721522630525295e-30
40
2.514519229346166
210
-4.899173293608742e-32
220
5.5385419411252855e-33
230
1
100
AcDbArc
50
-6.4499342953049856
51
57.144000152423125
0
SPLINE
5
126
100
AcDbEntity
8
0
100
AcDbSpline
70
0
71
3
72
12
73
8
74
0
42
0.000000001
43
0.0000000001
44
0.0000000001
40
0
40
0
40
0
40
0
40
0.33017161939358236
40
0.33017161939358236
40
0.47266573925034683
40
0.47266573925034683
40
0.60490308587051367
40
0.60490308587051367
40
0.60490308587051367
40
0.60490308587051367
10
57.623362055474566
20
-9.4677064667059518
30
0
10
57.052617844724068
20
-8.5266911026590275
30
3.944304526105059e-30
10
56.658330366981595
20
-7.6405657843913843
30
1.9721522630525295e-30
10
56.301428639051196
20
-6.517908277923814
30
1.9721522630525295e-30
10
56.215097531130233
20
-6.1798413739300084
30
1.9721522630525295e-30
10
56.096173549608594
20
-5.5281130209252627
30
0
10
56.047103719488909
20
-5.1581956757076863
30
0
10
56.076885635154817
20
-4.8947567283926929
30
1.9721522630525295e-30
0
ARC
5
127
100
AcDbEntity
8
0
100
AcDbCircle
10
58.621685709511446
20
17.513830737140466
30
7.1816546296646875e-43
40
27.000000000014033
210
-7.9069638766749753e-34
220
2.92559649321715e-35
230
1
100
AcDbArc
50
267.88100839275324
51
272.11899160724698
0
SPLINE
5
128
100
AcDbEntity
8
0
100
AcDbSpline
70
0
71
3
72
12
73
8
74
0
42
0.000000001
43
0.0000000001
44
0.0000000001
40
0
40
0
40
0
40
0
40
0.069666853523084105
40
0.069666853523084105
40
0.18224377968668268
40
0.18224377968668268
40
0.2903300018814699
40
0.2903300018814699
40
0.2903300018814699
40
0.2903300018814699
10
61.166485783868232
20
-4.8947567283927018
30
0
10
61.19257253165614
20
-5.1255096944960243
30
1.9721522630525295e-30
10
61.147995710678529
20
-5.4641313897225263
30
1.9721522630525295e-30
10
61.087596955456391
20
-5.8922464692818988
30
1.9721522630525295e-30
10
60.990059895790509
20
-6.4556420853960894
30
3.944304526105059e-30
10
60.417806633901669
20
-8.0220676585035466
30
3.944304526105059e-30
10
60.042797640603794
20
-8.7706336677986041
30
0
10
59.620009363548448
20
-9.4677064667059607
30
0
0
ARC
5
129
100
AcDbEntity
8
0
100
AcDbCircle
10
63.665089098729126
20
-4.6122882704670687
30
3.944304526105059e-30
40
2.514519229347167
210
-2.4850205556633856e-31
220
-1.6049261890886631e-31
230
1
100
AcDbArc
50
122.85599984759087
51
186.44993429529083
0
LINE
5
130
100
AcDbEntity
8
0
100
AcDbLine
10
62.300888223792654
20
-2.4999997183087146
30
3.9443045261050597e-30
11
64.367261155999785
21
-2.4999997183087075
31
3.944304526105059e-30
0
ARC
5
131
100
AcDbEntity
8
0
100
AcDbCircle
10
63.00306028106435
20
-4.6122882704665535
30
3.944304526105059e-30
40
2.514519229346166
210
-1.4697519880826227e-31
220
1.661562582337591e-32
230
1
100
AcDbArc
50
-6.4499342953049856
51
57.14400015242272
0
SPLINE
5
132
100
AcDbEntity
8
0
100
AcDbSpline
70
0
71
3
72
12
73
8
74
0
42
0.000000001
43
0.0000000001
44
0.0000000001
40
0
40
0
40
0
40
0
40
0.3301716193592103
40
0.3301716193592103
40
0.47266573918872767
40
0.47266573918872767
40
0.60490308578369767
40
0.60490308578369767
40
0.60490308578369767
40
0.60490308578369767
10
67.048140016243948
20
-9.4677064667059518
30
0
10
66.477395805552874
20
-8.5266911027569936
30
0
10
66.083108327787002
20
-7.6405657845048491
30
3.944304526105059e-30
10
65.72620659981439
20
-6.5179082779043007
30
0
10
65.639875491897612
20
-6.179841373919297
30
1.9721522630525295e-30
10
65.520951510379774
20
-5.5281130209349971
30
1.9721522630525295e-30
10
65.471881680258164
20
-5.1581956757089742
30
3.944304526105059e-30
10
65.501663595924214
20
-4.8947567283926929
30
0
0
ARC
5
133
100
AcDbEntity
8
0
100
AcDbCircle
10
68.046463670280829
20
17.513830737140825
30
3.9443045261071806e-30
40
27.000000000014396
210
-6.1921950257077178e-33
220
-1.4595620262811217e-31
230
1
100
AcDbArc
50
267.88100839275324
51
272.11899160724693
0
SPLINE
5
134
100
AcDbEntity
8
0
100
AcDbSpline
70
0
71
3
72
12
73
8
74
0
42
0.000000001
43
0.0000000001
44
0.0000000001
40
0
40
0
40
0
40
0
40
0.069666853522812253
40
0.069666853522812253
40
0.1822437796937692
40
0.1822437796937692
40
0.290330001894749
40
0.290330001894749
40
0.290330001894749
40
0.290330001894749
10
70.591263744637615
20
-4.8947567283927018
30
3.944304526105059e-30
10
70.617350492425416
20
-5.1255096944951273
30
1.9721522630525295e-30
10
70.572773671448658
20
-5.4641313897174104
30
0
10
70.512374916221972
20
-5.8922464693084553
30
1.9721522630525295e-30
10
70.414837856578416
20
-6.4556420853451257
30
0
10
69.842584594655534
20
-8.0220676585462858
30
1.9721522630525295e-30
10
69.467575601354653
20
-8.7706336678291397
30
0
10
69.044787324317824
20
-9.4677064667059607
30
3.944304526105059e-30
0
ARC
5
135
100
AcDbEntity
8
0
100
AcDbCircle
10
73.089867059498502
20
-4.6122882704670776
30
-1.9721522630525295e-30
40
2.5145192293471661
210
0
220
0
230
1
100
AcDbArc
50
122.85599984759087
51
186.44993429529063
0
LINE
5
136
100
AcDbEntity
8
0
100
AcDbLine
10
71.72566618456203
20
-2.4999997183087244
30
-1.9721522630525295e-30
11
73.792039116769161
21
-2.4999997183087164
31
2.0029671421627253e-30
0
ARC
5
137
100
AcDbEntity
8
0
100
AcDbCircle
10
72.42783824183374
20
-4.6122882704665535
30
3.944304526105059e-30
40
2.5145192293461669
210
1.7381276397984754e-31
220
-2.181210995088511e-31
230
1
100
AcDbArc
50
-6.4499342953052397
51
57.144000152422876
0
SPLINE
5
138
100
AcDbEntity
8
0
100
AcDbSpline
70
0
71
3
72
12
73
8
74
0
42
0.000000001
43
0.0000000001
44
0.0000000001
40
0
40
0
40
0
40
0
40
0.33017161884365409
40
0.33017161884365409
40
0.47266573819742674
40
0.47266573819742674
40
0.60490308435446993
40
0.60490308435446993
40
0.60490308435446993
40
0.60490308435446993
10
76.472917977013324
20
-9.4677064667059607
30
3.944304526105059e-30
10
75.902173767213455
20
-8.5266911042263782
30
3.944304526105059e-30
10
75.507886289044421
20
-7.640565786041531
30
0
10
75.150984560564353
20
-6.5179082778426789
30
3.944304526105059e-30
10
75.064653452668352
20
-6.1798413739263403
30
3.944304526105059e-30
10
74.945729471146336
20
-5.5281130209199603
30
1.9721522630525295e-30
10
74.896659641027625
20
-5.1581956757082725
30
3.944304526105059e-30
10
74.926441556693575
20
-4.8947567283927018
30
3.944304526105059e-30
0
ARC
5
139
100
AcDbEntity
8
0
100
AcDbCircle
10
77.471241631050404
20
17.513830737144048
30
3.9443045261046702e-30
40
27.000000000017632
210
-2.1496725846543598e-32
220
7.9538425610091809e-34
230
1
100
AcDbArc
50
267.88100839275307
51
272.11899160724624
0
SPLINE
5
140
100
AcDbEntity
8
0
100
AcDbSpline
70
0
71
3
72
12
73
8
74
0
42
0.000000001
43
0.0000000001
44
0.0000000001
40
0
40
0
40
0
40
0
40
0.069666853523203065
40
0.069666853523203065
40
0.18224377966466279
40
0.18224377966466279
40
0.29033000184798002
40
0.29033000184798002
40
0.29033000184798002
40
0.29033000184798002
10
80.016041705407005
20
-4.8947567283927107
30
3.944304526105059e-30
10
80.042128453194948
20
-5.1255096944964329
30
0
10
79.99755163221694
20
-5.4641313897250221
30
1.9721522630525295e-30
10
79.937152877003129
20
-5.8922464692253929
30
0
10
79.839615817239803
20
-6.4556420856419994
30
1.9721522630525295e-30
10
79.267362555500938
20
-8.022067658336951
30
0
10
78.892353562193847
20
-8.7706336677140495
30
0
10
78.469565285087214
20
-9.4677064667059696
30
0
0
ARC
5
141
100
AcDbEntity
8
0
100
AcDbCircle
10
82.514645020267892
20
-4.6122882704670776
30
3.944304526105059e-30
40
2.5145192293471657
210
2.4161060750464483e-32
220
-2.1916557668051463e-31
230
1
100
AcDbArc
50
122.85599984759087
51
186.44993429529083
0
LINE
5
142
100
AcDbEntity
8
0
100
AcDbLine
10
81.15044414533142
20
-2.4999997183087252
30
4.4402060049696705e-30
11
83.216817077538536
21
-2.4999997183087341
31
3.944304526105059e-30
0
ARC
5
143
100
AcDbEntity
8
0
100
AcDbCircle
10
81.852616202603116
20
-4.6122882704665802
30
0
40
2.5145192293461656
210
-1.6912936657276261e-31
220
-1.7935130592097374e-31
230
1
100
AcDbArc
50
-6.4499342953047822
51
57.144000152422976
0
SPLINE
5
144
100
AcDbEntity
8
0
100
AcDbSpline
70
0
71
3
72
12
73
8
74
0
42
0.000000001
43
0.0000000001
44
0.0000000001
40
0
40
0
40
0
40
0
40
0.33017161946938128
40
0.33017161946938128
40
0.4726657393876843
40
0.4726657393876843
40
0.60490308606404797
40
0.60490308606404797
40
0.60490308606404797
40
0.60490308606404797
10
85.897695937782714
20
-9.4677064667059785
30
3.944304526105059e-30
10
85.3269517269012
20
-8.5266911024430225
30
0
10
84.932664249201849
20
-7.6405657841144414
30
0
10
84.575762521375495
20
-6.5179082779749198
30
3.944304526105059e-30
10
84.489431413442659
20
-6.1798413739529945
30
3.944304526105059e-30
10
84.370507431913126
20
-5.5281130209061313
30
1.9721522630525295e-30
10
84.321437601797271
20
-5.1581956757058922
30
1.9721522630525295e-30
10
84.351219517462951
20
-4.8947567283927107
30
1.9721522630525295e-30
0
ARC
5
145
100
AcDbEntity
8
0
100
AcDbCircle
10
86.89601959181978
20
17.51383073714404
30
1.0860063098517332e-43
40
27.000000000017643
210
4.6108022503704052e-33
220
1.4601471455792959e-31
230
1
100
AcDbArc
50
267.88100839275319
51
272.11899160724624
0
SPLINE
5
146
100
AcDbEntity
8
0
100
AcDbSpline
70
0
71
3
72
12
73
8
74
0
42
0.000000001
43
0.0000000001
44
0.0000000001
40
0
40
0
40
0
40
0
40
0.069666853520677835
40
0.069666853520677835
40
0.18224377968330613
40
0.18224377968330613
40
0.290330001887876
40
0.290330001887876
40
0.290330001887876
40
0.290330001887876
10
89.440819666176381
20
-4.8947567283927196
30
1.9721522630525295e-30
10
89.466906413963457
20
-5.1255096944880663
30
1.9721522630525295e-30
10
89.422329592990877
20
-5.4641313896936161
30
3.944304526105059e-30
10
89.361930837756773
20
-5.8922464693355359
30
1.9721522630525295e-30
10
89.264393778061915
20
-6.4556420854969332
30
1.9721522630525295e-30
10
88.692140516217307
20
-8.0220676584828521
30
3.944304526105059e-30
10
88.317131522868365
20
-8.7706336678704844
30
3.944304526105059e-30
10
87.894343245856589
20
-9.4677064667059785
30
0
0
ARC
5
147
100
AcDbEntity
8
0
100
AcDbCircle
10
91.939422981037268
20
-4.6122882704670953
30
3.944304526105059e-30
40
2.5145192293471657
210
2.4161060750464483e-32
220
-2.1916557668051463e-31
230
1
100
AcDbArc
50
122.85599984759087
51
186.44993429529063
0
LINE
5
148
100
AcDbEntity
8
0
100
AcDbLine
10
90.575222106100796
20
-2.499999718308743
30
4.4402060049696705e-30
11
92.641595038307912
21
-2.4999997183087341
31
0
0
ARC
5
149
100
AcDbEntity
8
0
100
AcDbCircle
10
91.277394163372506
20
-4.6122882704665802
30
7.8886090522101181e-30
40
2.514519229346166
210
-9.798346587217484e-32
220
1.1077083882250579e-32
230
1
100
AcDbArc
50
-6.4499342953049856
51
57.144000152423253
0
SPLINE
5
150
100
AcDbEntity
8
0
100
AcDbSpline
70
0
71
3
72
12
73
8
74
0
42
0.000000001
43
0.0000000001
44
0.0000000001
40
0
40
0
40
0
40
0
40
0.33017161930985101
40
0.33017161930985101
40
0.47266573909928544
40
0.47266573909928544
40
0.60490308565898876
40
0.60490308565898876
40
0.60490308565898876
40
0.60490308565898876
10
95.32247389855209
20
-9.4677064667059785
30
-1.9721522630525295e-30
10
94.751729687946366
20
-8.5266911028976988
30
0
10
94.357442210164663
20
-7.6405657847237585
30
0
10
94.000540482106715
20
-6.5179082778545361
30
1.9721522630525295e-30
10
93.914209374202841
20
-6.1798413739028923
30
0
10
93.795285392689777
20
-5.528113020945673
30
3.944304526105059e-30
10
93.74621556256605
20
-5.1581956757113012
30
3.944304526105059e-30
10
93.775997478232341
20
-4.8947567283927196
30
1.9721522630525295e-30
0
ARC
5
151
100
AcDbEntity
8
0
100
AcDbCircle
10
96.320797552589156
20
17.513830737131041
30
1.1832913578315497e-29
40
27.000000000004651
210
4.081048673282041e-33
220
-5.1179960372413674e-31
230
1
100
AcDbArc
50
267.88100839275211
51
272.11899160724721
0
SPLINE
5
152
100
AcDbEntity
8
0
100
AcDbSpline
70
0
71
3
72
12
73
8
74
0
42
0.000000001
43
0.0000000001
44
0.0000000001
40
0
40
0
40
0
40
0
40
0.069666853522079755
40
0.069666853522079755
40
0.18224377967956115
40
0.18224377967956115
40
0.29033000187308583
40
0.29033000187308583
40
0.29033000187308583
40
0.29033000187308583
10
98.865597626945757
20
-4.8947567283927285
30
0
10
98.891684374733359
20
-5.1255096944927203
30
1.9721522630525295e-30
10
98.847107553756373
20
-5.4641313897199417
30
1.9721522630525295e-30
10
98.786708798534875
20
-5.8922464692755661
30
3.944304526105059e-30
10
98.689171738882749
20
-6.4556420853550733
30
3.944304526105059e-30
10
98.116918476953131
20
-8.0220676585757289
30
3.944304526105059e-30
10
97.741909483449533
20
-8.7706336681816044
30
3.944304526105059e-30
10
97.319121206625979
20
-9.4677064667059874
30
1.9721522630525295e-30
0
ARC
5
153
100
AcDbEntity
8
0
100
AcDbCircle
10
101.36420094180666
20
-4.6122882704670953
30
-3.944304526105059e-30
40
2.5145192293471657
210
2.4161060750464483e-32
220
-2.1916557668051463e-31
230
1
100
AcDbArc
50
122.85599984759087
51
186.4499342952908
0
LINE
5
154
100
AcDbEntity
8
0
100
AcDbLine
10
100.00000006687019
20
-2.499999718308743
30
-3.4484030472404476e-30
11
100.00000006687019
21
2.5000002816912481
31
2.9582283945787943e-30
0
LINE
5
155
100
AcDbEntity
8
0
100
AcDbLine
10
100.00000006687019
20
2.5000002816912481
30
2.9582283945787943e-30
11
-77.004408543587473
21
2.5000002816914577
31
1.9721522630525295e-30
0
LINE
5
156
100
AcDbEntity
8
0
100
AcDbLine
10
-77.004408543587473
20
2.5000002816914577
30
1.9721522630525295e-30
11
-77.004408543587488
21
-2.4999997183086444
31
-9.8607613152626476e-31
0
ARC
5
157
100
AcDbEntity
8
0
100
AcDbCircle
10
-78.368609418522894
20
-4.6122882704664905
30
-3.944304526105059e-30
40
2.514519229346166
210
-9.7983465872174665e-32
220
1.1077083882250571e-32
230
1
100
AcDbArc
50
-6.4499342953049856
51
57.144000152423253
0
SPLINE
5
158
100
AcDbEntity
8
0
100
AcDbSpline
70
0
71
3
72
12
73
8
74
0
42
0.000000001
43
0.0000000001
44
0.0000000001
40
0
40
0
40
0
40
0
40
0.33017162006659362
40
0.33017162006659362
40
0.47266574053793631
40
0.47266574053793631
40
0.60490308772610335
40
0.60490308772610335
40
0.60490308772610335
40
0.60490308772610335
10
-74.32352968334331
20
-9.4677064667058879
30
0
10
-74.894273895257186
20
-8.5266911007408446
30
0
10
-75.288561372436362
20
-7.6405657825032849
30
0
10
-75.645463099752462
20
-6.5179082779687372
30
0
10
-75.731794207688779
20
-6.1798413739232929
30
0
10
-75.850718189207257
20
-5.5281130209369502
30
0
10
-75.899788019329179
20
-5.1581956757097105
30
0
10
-75.870006103663059
20
-4.8947567283926299
30
0
0
ARC
5
159
100
AcDbEntity
8
0
100
AcDbCircle
10
-73.325206029306258
20
17.513830737144005
30
-3.944304526104701e-30
40
27.000000000017515
210
-1.9166188043724204e-32
220
1.4689446917134675e-31
230
1
100
AcDbArc
50
267.88100839275319
51
272.11899160724636
0
SPLINE
5
160
100
AcDbEntity
8
0
100
AcDbSpline
70
0
71
3
72
12
73
8
74
0
42
0.000000001
43
0.0000000001
44
0.0000000001
40
0
40
0
40
0
40
0
40
0.069666853523873418
40
0.069666853523873418
40
0.18224377971055777
40
0.18224377971055777
40
0.29033000190867458
40
0.29033000190867458
40
0.29033000190867458
40
0.29033000190867458
10
-70.780405954949643
20
-4.8947567283926476
30
-1.9721522630525295e-30
10
-70.754319207161444
20
-5.1255096944985903
30
1.9721522630525295e-30
10
-70.798896028141584
20
-5.4641313897378909
30
0
10
-70.859294783365115
20
-5.8922464693081702
30
-1.9721522630525295e-30
10
-70.956831842856388
20
-6.4556420849251319
30
0
10
-71.529085105031527
20
-8.0220676588219391
30
0
10
-71.904094098453129
20
-8.7706336681926693
30
0
10
-72.326882375269435
20
-9.4677064667058879
30
0
0
ARC
5
161
100
AcDbEntity
8
0
100
AcDbCircle
10
-68.281802640088756
20
-4.6122882704670056
30
-1.9721522630525295e-30
40
2.5145192293471657
210
2.4161060750464483e-32
220
-2.1916557668051463e-31
230
1
100
AcDbArc
50
122.85599984759087
51
186.44993429529106
0
LINE
5
162
100
AcDbEntity
8
0
100
AcDbLine
10
-69.646003515025228
20
-2.4999997183086533
30
-1.4762507841879181e-30
11
-67.579630582818112
21
-2.4999997183086444
31
0
0
ARC
5
163
100
AcDbEntity
8
0
100
AcDbCircle
10
-68.943831457753532
20
-4.6122882704664905
30
0
40
2.5145192293461669
210
1.7381276397984756e-31
220
-2.1812109950885171e-31
230
1
100
AcDbArc
50
-6.449934295305189
51
57.144000152422976
0
SPLINE
5
164
100
AcDbEntity
8
0
100
AcDbSpline
70
0
71
3
72
12
73
8
74
0
42
0.000000001
43
0.0000000001
44
0.0000000001
40
0
40
0
40
0
40
0
40
0.33017161869464023
40
0.33017161869464023
40
0.47266573792228805
40
0.47266573792228805
40
0.60490308395947756
40
0.60490308395947756
40
0.60490308395947756
40
0.60490308395947756
10
-64.898751722573934
20
-9.4677064667059057
30
0
10
-65.469495932116217
20
-8.5266911046510323
30
0
10
-65.863783410458268
20
-7.6405657863062517
30
1.9721522630525295e-30
10
-66.22068513901273
20
-6.5179082778751587
30
1.9721522630525295e-30
10
-66.307016246919787
20
-6.1798413739216942
30
0
10
-66.42594022843889
20
-5.5281130209308573
30
0
10
-66.475010058559846
20
-5.1581956757101013
30
0
10
-66.445228142893697
20
-4.8947567283926476
30
0
0
ARC
5
165
100
AcDbEntity
8
0
100
AcDbCircle
10
-63.900428068537053
20
17.51383073714074
30
3.9443045261064141e-30
40
27.000000000014268
210
-9.2631558609282479e-33
220
-1.458425763057864e-31
230
1
100
AcDbArc
50
267.88100839275324
51
272.11899160724693
0
SPLINE
5
166
100
AcDbEntity
8
0
100
AcDbSpline
70
0
71
3
72
12
73
8
74
0
42
0.000000001
43
0.0000000001
44
0.0000000001
40
0
40
0
40
0
40
0
40
0.069666853523197014
40
0.069666853523197014
40
0.18224377967341848
40
0.18224377967341848
40
0.29033000186171515
40
0.29033000186171515
40
0.29033000186171515
40
0.29033000186171515
10
-61.355627994180281
20
-4.8947567283926476
30
0
10
-61.329541246392331
20
-5.1255096944963521
30
0
10
-61.374118067370304
20
-5.464131389724888
30
0
10
-61.434516822587064
20
-5.8922464692460865
30
0
10
-61.532053882304318
20
-6.455642085523853
30
0
10
-62.104307144118863
20
-8.0220676584259181
30
0
10
-62.479316137477241
20
-8.7706336678521772
30
0
10
-62.902104414500059
20
-9.4677064667059057
30
0
0
ARC
5
167
100
AcDbEntity
8
0
100
AcDbCircle
10
-58.85702467931938
20
-4.6122882704670234
30
-1.9721522630525295e-30
40
2.5145192293471657
210
2.4161060750464483e-32
220
-2.1916557668051463e-31
230
1
100
AcDbArc
50
122.85599984759087
51
186.44993429529063
0
LINE
5
168
100
AcDbEntity
8
0
100
AcDbLine
10
-60.221225554255852
20
-2.4999997183086711
30
-1.4762507841879181e-30
11
-58.154852622048729
21
-2.49999971830868
31
0
0
ARC
5
169
100
AcDbEntity
8
0
100
AcDbCircle
10
-59.519053496984149
20
-4.612288270466526
30
3.944304526105059e-30
40
2.5145192293461656
210
-1.6912936657276268e-31
220
-1.7935130592097313e-31
230
1
100
AcDbArc
50
-6.4499342953047822
51
57.144000152422976
0
SPLINE
5
170
100
AcDbEntity
8
0
100
AcDbSpline
70
0
71
3
72
12
73
8
74
0
42
0.000000001
43
0.0000000001
44
0.0000000001
40
0
40
0
40
0
40
0
40
0.33017162026867353
40
0.33017162026867353
40
0.47266574093904801
40
0.47266574093904801
40
0.60490308830714523
40
0.60490308830714523
40
0.60490308830714523
40
0.60490308830714523
10
-55.473973761804558
20
-9.4677064667059057
30
-1.9721522630525295e-30
10
-56.044717974067751
20
-8.5266911001649142
30
0
10
-56.439005451054207
20
-7.6405657820107367
30
0
10
-56.795907178230564
20
-6.5179082779157484
30
0
10
-56.882238286157857
20
-6.1798413738815308
30
0
10
-57.001162267659147
20
-5.5281130209869902
30
0
10
-57.050232097791557
20
-5.1581956757196403
30
1.9721522630525295e-30
10
-57.0204501821243
20
-4.8947567283926476
30
0
0
ARC
5
171
100
AcDbEntity
8
0
100
AcDbCircle
10
-54.475650107767692
20
17.513830737140857
30
7.8886090522112699e-30
40
27.000000000014381
210
-1.1223482147547399e-32
220
-3.6504801683986301e-31
230
1
100
AcDbArc
50
267.8810083927533
51
272.11899160724693
0
SPLINE
5
172
100
AcDbEntity
8
0
100
AcDbSpline
70
0
71
3
72
12
73
8
74
0
42
0.000000001
43
0.0000000001
44
0.0000000001
40
0
40
0
40
0
40
0
40
0.069666853526094696
40
0.069666853526094696
40
0.18224377970161781
40
0.18224377970161781
40
0.29033000191064912
40
0.29033000191064912
40
0.29033000191064912
40
0.29033000191064912
10
-51.930850033410884
20
-4.8947567283926654
30
0
10
-51.904763285622082
20
-5.1255096945059799
30
0
10
-51.949340106603266
20
-5.4641313897414259
30
0
10
-52.009738861820757
20
-5.8922464692677758
30
0
10
-52.107275921506535
20
-6.4556420854456222
30
0
10
-52.679529183367499
20
-8.0220676584757626
30
-1.9721522630525295e-30
10
-53.054538176700241
20
-8.7706336678396539
30
0
10
-53.477326453730676
20
-9.4677064667059234
30
0
0
ARC
5
173
100
AcDbEntity
8
0
100
AcDbCircle
10
-49.432246718549997
20
-4.6122882704670412
30
-3.944304526105059e-30
40
2.514519229347167
210
-2.4850205556633856e-31
220
-1.6049261890886631e-31
230
1
100
AcDbArc
50
122.85599984759087
51
186.44993429529063
0
LINE
5
174
100
AcDbEntity
8
0
100
AcDbLine
10
-50.796447593486469
20
-2.4999997183086871
30
-3.9443045261050583e-30
11
-48.730074661279346
21
-2.49999971830868
31
3.944304526105059e-30
0
ARC
5
175
100
AcDbEntity
8
0
100
AcDbCircle
10
-50.094275536214774
20
-4.612288270466526
30
0
40
2.5145192293461656
210
1.2482103104376187e-31
220
-2.1258255756772477e-31
230
1
100
AcDbArc
50
-6.4499342953047822
51
57.144000152422841
0
SPLINE
5
176
100
AcDbEntity
8
0
100
AcDbSpline
70
0
71
3
72
12
73
8
74
0
42
0.000000001
43
0.0000000001
44
0.0000000001
40
0
40
0
40
0
40
0
40
0.3301716188926907
40
0.3301716188926907
40
0.47266573829913505
40
0.47266573829913505
40
0.60490308450349617
40
0.60490308450349617
40
0.60490308450349617
40
0.60490308450349617
10
-46.049195801035182
20
-9.4677064667059057
30
0
10
-46.619940010919819
20
-8.5266911040865772
30
0
10
-47.01422748904767
20
-7.6405657859036937
30
-1.9721522630525295e-30
10
-47.371129217489127
20
-6.5179082778272326
30
0
10
-47.457460325383288
20
-6.1798413739095617
30
0
10
-47.576384306898582
20
-5.5281130209391529
30
0
10
-47.625454137021251
20
-5.1581956757115401
30
1.9721522630525295e-30
10
-47.595672221354917
20
-4.8947567283926476
30
0
0
ARC
5
177
100
AcDbEntity
8
0
100
AcDbCircle
10
-45.050872146998287
20
17.513830737140857
30
-1.7691393112100816e-43
40
27.000000000014381
210
-3.8616572228883342e-33
220
1.4288228726342184e-34
230
1
100
AcDbArc
50
267.88100839275324
51
272.11899160724681
0
SPLINE
5
178
100
AcDbEntity
8
0
100
AcDbSpline
70
0
71
3
72
12
73
8
74
0
42
0.000000001
43
0.0000000001
44
0.0000000001
40
0
40
0
40
0
40
0
40
0.069666853522389771
40
0.069666853522389771
40
0.18224377967169808
40
0.18224377967169808
40
0.29033000185930419
40
0.29033000185930419
40
0.29033000185930419
40
0.29033000185930419
10
-42.506072072641501
20
-4.8947567283926654
30
0
10
-42.4799853248538
20
-5.1255096944936875
30
1.9721522630525295e-30
10
-42.524562145830942
20
-5.4641313897204116
30
0
10
-42.584960901049442
20
-5.8922464692542578
30
0
10
-42.682497960751185
20
-6.4556420854839915
30
0
10
-43.254751222594372
20
-8.0220676584655131
30
0
10
-43.629760216001792
20
-8.7706336679570001
30
-1.9721522630525295e-30
10
-44.052548492961293
20
-9.4677064667059234
30
-1.9721522630525295e-30
0
ARC
5
179
100
AcDbEntity
8
0
100
AcDbCircle
10
-40.007468757780622
20
-4.6122882704670412
30
0
40
2.5145192293471657
210
0
220
0
230
1
100
AcDbArc
50
122.85599984759087
51
186.44993429529069
0
LINE
5
180
100
AcDbEntity
8
0
100
AcDbLine
10
-41.371669632717094
20
-2.4999997183086888
30
0
11
-39.30529670050997
21
-2.49999971830868
31
0
0
ARC
5
181
100
AcDbEntity
8
0
100
AcDbCircle
10
-40.669497575445391
20
-4.612288270466526
30
0
40
2.514519229346166
210
-1.4697519880826218e-31
220
1.6615625823375899e-32
230
1
100
AcDbArc
50
-6.4499342953049856
51
57.144000152422976
0
SPLINE
5
182
100
AcDbEntity
8
0
100
AcDbSpline
70
0
71
3
72
12
73
8
74
0
42
0.000000001
43
0.0000000001
44
0.0000000001
40
0
40
0
40
0
40
0
40
0.33017161959668578
40
0.33017161959668578
40
0.47266573964514091
40
0.47266573964514091
40
0.60490308644110202
40
0.60490308644110202
40
0.60490308644110202
40
0.60490308644110202
10
-36.624417840265792
20
-9.4677064667059234
30
0
10
-37.195162051367376
20
-8.5266911020801466
30
0
10
-37.589449528941415
20
-7.6405657838166521
30
0
10
-37.946351256688914
20
-6.5179082779247191
30
0
10
-38.032682364613059
20
-6.1798413739142513
30
0
10
-38.151606346128176
20
-5.528113020944784
30
0
10
-38.200676176251839
20
-5.1581956757109717
30
0
10
-38.170894260585541
20
-4.8947567283926654
30
0
0
ARC
5
183
100
AcDbEntity
8
0
100
AcDbCircle
10
-35.626094186228912
20
17.513830737140598
30
-3.9443045261035183e-30
40
27.00000000001414
210
1.07527239208133e-32
220
1.4578746191329926e-31
230
1
100
AcDbArc
50
267.88100839275324
51
272.11899160724693
0
SPLINE
5
184
100
AcDbEntity
8
0
100
AcDbSpline
70
0
71
3
72
12
73
8
74
0
42
0.000000001
43
0.0000000001
44
0.0000000001
40
0
40
0
40
0
40
0
40
0.069666853523192754
40
0.069666853523192754
40
0.1822437796833451
40
0.1822437796833451
40
0.29033000187547547
40
0.29033000187547547
40
0.29033000187547547
40
0.29033000187547547
10
-33.081294111872126
20
-4.8947567283926832
30
0
10
-33.055207364084175
20
-5.1255096944963698
30
0
10
-33.099784185062347
20
-5.4641313897260249
30
0
10
-33.160182940281963
20
-5.8922464692677403
30
0
10
-33.257719999945628
20
-6.45564208538448
30
0
10
-33.829973261844458
20
-8.0220676585192834
30
0
10
-34.204982255208002
20
-8.7706336679165702
30
0
10
-34.62777053219191
20
-9.4677064667059234
30
0
0
ARC
5
185
100
AcDbEntity
8
0
100
AcDbCircle
10
-30.582690797011246
20
-4.6122882704670412
30
1.9721522630525295e-30
40
2.5145192293471657
210
0
220
0
230
1
100
AcDbArc
50
122.85599984759087
51
186.44993429529106
0
LINE
5
186
100
AcDbEntity
8
0
100
AcDbLine
10
-31.946891671947718
20
-2.4999997183086888
30
1.9721522630525295e-30
11
-29.880518739740587
21
-2.4999997183086977
31
1.9721522630525295e-30
0
ARC
5
187
100
AcDbEntity
8
0
100
AcDbCircle
10
-31.244719614676018
20
-4.6122882704665438
30
0
40
2.514519229346166
210
-4.8991732936087365e-32
220
5.5385419411252855e-33
230
1
100
AcDbArc
50
-6.4499342953049341
51
57.144000152422777
0
SPLINE
5
188
100
AcDbEntity
8
0
100
AcDbSpline
70
0
71
3
72
12
73
8
74
0
42
0.000000001
43
0.0000000001
44
0.0000000001
40
0
40
0
40
0
40
0
40
0.33017161939358236
40
0.33017161939358236
40
0.47266573925034683
40
0.47266573925034683
40
0.60490308587051367
40
0.60490308587051367
40
0.60490308587051367
40
0.60490308587051367
10
-27.199639879496416
20
-9.4677064667059412
30
0
10
-27.770384090246903
20
-8.526691102659008
30
0
10
-28.164671567989391
20
-7.6405657843913746
30
-1.9721522630525295e-30
10
-28.521573295919801
20
-6.5179082779237953
30
0
10
-28.60790440384077
20
-6.1798413739299898
30
0
10
-28.726828385362403
20
-5.528113020925244
30
0
10
-28.775898215482091
20
-5.1581956757076677
30
0
10
-28.746116299816165
20
-4.8947567283926832
30
0
0
ARC
5
189
100
AcDbEntity
8
0
100
AcDbCircle
10
-26.201316225459532
20
17.513830737140538
30
7.888609052210872e-30
40
27.000000000014097
210
-1.159369366374792e-32
220
-2.9194166122105701e-31
230
1
100
AcDbArc
50
267.88100839275324
51
272.11899160724693
0
SPLINE
5
190
100
AcDbEntity
8
0
100
AcDbSpline
70
0
71
3
72
12
73
8
74
0
42
0.000000001
43
0.0000000001
44
0.0000000001
40
0
40
0
40
0
40
0
40
0.069666853523084105
40
0.069666853523084105
40
0.18224377968668268
40
0.18224377968668268
40
0.2903300018814699
40
0.2903300018814699
40
0.2903300018814699
40
0.2903300018814699
10
-23.65651615110275
20
-4.8947567283926832
30
0
10
-23.630429403314853
20
-5.1255096944960146
30
0
10
-23.675006224292471
20
-5.4641313897225077
30
1.9721522630525295e-30
10
-23.735404979514595
20
-5.8922464692818801
30
0
10
-23.832942039180477
20
-6.4556420853960796
30
0
10
-24.405195301069323
20
-8.0220676585035271
30
0
10
-24.780204294367177
20
-8.7706336677985846
30
-1.9721522630525295e-30
10
-25.202992571422534
20
-9.4677064667059412
30
0
0
ARC
5
191
100
AcDbEntity
8
0
100
AcDbCircle
10
-21.157912836241866
20
-4.6122882704670589
30
1.9721522630525295e-30
40
2.5145192293471648
210
-2.4850205556633886e-31
220
-1.6049261890886598e-31
230
1
100
AcDbArc
50
122.85599984759079
51
186.44993429529069
0
LINE
5
192
100
AcDbEntity
8
0
100
AcDbLine
10
-22.522113711178335
20
-2.4999997183087048
30
1.9721522630525302e-30
11
-20.455740778971212
21
-2.4999997183086977
31
0
0
ARC
5
193
100
AcDbEntity
8
0
100
AcDbCircle
10
-21.819941653906639
20
-4.6122882704665438
30
0
40
2.5145192293461682
210
-1.4697519880826205e-31
220
1.6615625823375885e-32
230
1
100
AcDbArc
50
-6.4499342953049341
51
57.144000152422841
0
SPLINE
5
194
100
AcDbEntity
8
0
100
AcDbSpline
70
0
71
3
72
12
73
8
74
0
42
0.000000001
43
0.0000000001
44
0.0000000001
40
0
40
0
40
0
40
0
40
0.3301716193592103
40
0.3301716193592103
40
0.47266573918872767
40
0.47266573918872767
40
0.60490308578369767
40
0.60490308578369767
40
0.60490308578369767
40
0.60490308578369767
10
-17.774861918727037
20
-9.4677064667059412
30
0
10
-18.345606129418105
20
-8.5266911027569741
30
0
10
-18.739893607183987
20
-7.6405657845048305
30
0
10
-19.096795335156603
20
-6.5179082779042909
30
0
10
-19.18312644307338
20
-6.1798413739192783
30
0
10
-19.302050424591211
20
-5.5281130209349785
30
1.9721522630525295e-30
10
-19.351120254712814
20
-5.1581956757089644
30
0
10
-19.321338339046783
20
-4.8947567283926832
30
1.9721522630525295e-30
0
ARC
5
195
100
AcDbEntity
8
0
100
AcDbCircle
10
-16.776538264690156
20
17.513830737140566
30
-3.9443045261068723e-30
40
27.000000000014129
210
4.6108022503726727e-33
220
1.4601471455801976e-31
230
1
100
AcDbArc
50
267.88100839275324
51
272.11899160724693
0
SPLINE
5
196
100
AcDbEntity
8
0
100
AcDbSpline
70
0
71
3
72
12
73
8
74
0
42
0.000000001
43
0.0000000001
44
0.0000000001
40
0
40
0
40
0
40
0
40
0.069666853522812253
40
0.069666853522812253
40
0.1822437796937692
40
0.1822437796937692
40
0.290330001894749
40
0.290330001894749
40
0.290330001894749
40
0.290330001894749
10
-14.231738190333367
20
-4.8947567283926832
30
1.9721522630525295e-30
10
-14.205651442545559
20
-5.1255096944951086
30
1.9721522630525295e-30
10
-14.250228263522327
20
-5.4641313897173918
30
0
10
-14.310627018749017
20
-5.8922464693084367
30
0
10
-14.40816407839257
20
-6.455642085345116
30
0
10
-14.980417340315451
20
-8.0220676585462662
30
0
10
-15.355426333616327
20
-8.7706336678291201
30
-1.9721522630525295e-30
10
-15.778214610653157
20
-9.4677064667059412
30
-1.9721522630525295e-30
0
ARC
5
197
100
AcDbEntity
8
0
100
AcDbCircle
10
-11.733134875472484
20
-4.6122882704670589
30
0
40
2.5145192293471661
210
0
220
0
230
1
100
AcDbArc
50
122.85599984759087
51
186.44993429529069
0
LINE
5
198
100
AcDbEntity
8
0
100
AcDbLine
10
-13.097335750408956
20
-2.4999997183087057
30
0
11
-11.030962818201823
21
-2.4999997183086977
31
3.0814879110195774e-32
0
ARC
5
199
100
AcDbEntity
8
0
100
AcDbCircle
10
-12.395163693137256
20
-4.6122882704665438
30
3.944304526105059e-30
40
2.5145192293461682
210
1.7381276397984747e-31
220
-2.181210995088511e-31
230
1
100
AcDbArc
50
-6.449934295305189
51
57.144000152422741
0
SPLINE
5
200
100
AcDbEntity
8
0
100
AcDbSpline
70
0
71
3
72
12
73
8
74
0
42
0.000000001
43
0.0000000001
44
0.0000000001
40
0
40
0
40
0
40
0
40
0.33017161884365409
40
0.33017161884365409
40
0.47266573819742674
40
0.47266573819742674
40
0.60490308435446993
40
0.60490308435446993
40
0.60490308435446993
40
0.60490308435446993
10
-8.3500839579576578
20
-9.4677064667059412
30
0
10
-8.9208281677575272
20
-8.5266911042263587
30
0
10
-9.3151156459265607
20
-7.6405657860415213
30
0
10
-9.6720173744066393
20
-6.5179082778426691
30
0
10
-9.7583484823026332
20
-6.1798413739263305
30
0
10
-9.8772724638246547
20
-5.5281130209199505
30
0
10
-9.9263422939433656
20
-5.1581956757082539
30
0
10
-9.8965603782774139
20
-4.8947567283926832
30
1.9721522630525295e-30
0
ARC
5
201
100
AcDbEntity
8
0
100
AcDbCircle
10
-7.3517603039205923
20
17.513830737143778
30
1.1590818352374219e-44
40
27.000000000017344
210
-2.1496725846543655e-32
220
7.9538425608607993e-34
230
1
100
AcDbArc
50
267.88100839275307
51
272.11899160724636
0
SPLINE
5
202
100
AcDbEntity
8
0
100
AcDbSpline
70
0
71
3
72
12
73
8
74
0
42
0.000000001
43
0.0000000001
44
0.0000000001
40
0
40
0
40
0
40
0
40
0.069666853523203065
40
0.069666853523203065
40
0.18224377966466279
40
0.18224377966466279
40
0.29033000184798002
40
0.29033000184798002
40
0.29033000184798002
40
0.29033000184798002
10
-4.8069602295639982
20
-4.8947567283927009
30
0
10
-4.7808734817760481
20
-5.1255096944964231
30
0
10
-4.8254503027540565
20
-5.4641313897250123
30
0
10
-4.8858490579678673
20
-5.8922464692253742
30
0
10
-4.9833861177311825
20
-6.4556420856419807
30
1.9721522630525295e-30
10
-5.5556393794700529
20
-8.0220676583369404
30
0
10
-5.9306483727771351
20
-8.77063366771403
30
0
10
-6.3534366498837755
20
-9.4677064667059589
30
1.9721522630525295e-30
0
ARC
5
203
100
AcDbEntity
8
0
100
AcDbCircle
10
-2.3083569147031056
20
-4.6122882704670589
30
5.9164567891575885e-30
40
2.5145192293471648
210
2.4161060750464532e-32
220
-2.1916557668051463e-31
230
1
100
AcDbArc
50
122.85599984759087
51
186.44993429529103
0
LINE
5
204
100
AcDbEntity
8
0
100
AcDbLine
10
-3.6725577896395762
20
-2.4999997183087066
30
6.4123582680222e-30
11
-1.6061848574324529
21
-2.4999997183087155
31
1.9721522630525295e-30
0
ARC
5
205
100
AcDbEntity
8
0
100
AcDbCircle
10
-2.9703857323678777
20
-4.6122882704665615
30
3.944304526105059e-30
40
2.5145192293461687
210
-1.6912936657276255e-31
220
-1.7935130592097405e-31
230
1
100
AcDbArc
50
-6.4499342953047822
51
57.144000152422898
0
SPLINE
5
206
100
AcDbEntity
8
0
100
AcDbSpline
70
0
71
3
72
12
73
8
74
0
42
0.000000001
43
0.0000000001
44
0.0000000001
40
0
40
0
40
0
40
0
40
0.33017161946938128
40
0.33017161946938128
40
0.4726657393876843
40
0.4726657393876843
40
0.60490308606404797
40
0.60490308606404797
40
0.60490308606404797
40
0.60490308606404797
10
1.0746940028117207
20
-9.4677064667059589
30
1.9721522630525295e-30
10
0.50394979193020173
20
-8.526691102443003
30
1.9721522630525295e-30
10
0.1096623142308535
20
-7.6405657841144228
30
0
10
-0.24723941359549667
20
-6.5179082779749011
30
0
10
-0.33357052152833194
20
-6.1798413739529758
30
0
10
-0.45249450305785999
20
-5.5281130209061127
30
0
10
-0.50156433317371951
20
-5.1581956757058736
30
0
10
-0.47178241750803407
20
-4.8947567283927009
30
0
0
ARC
5
207
100
AcDbEntity
8
0
100
AcDbCircle
10
2.0730176568487875
20
17.513830737150315
30
1.3251028603271551e-42
40
27.000000000023888
210
1.910052931345862e-33
220
7.3021985261380387e-32
230
1
100
AcDbArc
50
267.8810083927537
51
272.11899160724585
0
SPLINE
5
208
100
AcDbEntity
8
0
100
AcDbSpline
70
0
71
3
72
12
73
8
74
0
42
0.000000001
43
0.0000000001
44
0.0000000001
40
0
40
0
40
0
40
0
40
0.069666853520677835
40
0.069666853520677835
40
0.18224377968330613
40
0.18224377968330613
40
0.290330001887876
40
0.290330001887876
40
0.290330001887876
40
0.290330001887876
10
4.6178177312053901
20
-4.8947567283927009
30
0
10
4.6439044789924697
20
-5.1255096944880565
30
0
10
4.5993276580198792
20
-5.4641313896936063
30
0
10
4.5389289027857824
20
-5.8922464693355261
30
1.9721522630525295e-30
10
4.4413918430909192
20
-6.4556420854969234
30
0
10
3.8691385812463026
20
-8.0220676584828325
30
0
10
3.494129587897369
20
-8.7706336678704737
30
0
10
3.0713413108856029
20
-9.4677064667059589
30
3.944304526105059e-30
0
ARC
5
209
100
AcDbEntity
8
0
100
AcDbCircle
10
7.1164210460662822
20
-4.6122882704670767
30
5.9164567891575885e-30
40
2.5145192293471652
210
2.4161060750464417e-32
220
-2.1916557668051467e-31
230
1
100
AcDbArc
50
122.85599984759085
51
186.44993429529063
0
LINE
5
210
100
AcDbEntity
8
0
100
AcDbLine
10
5.752220171129812
20
-2.4999997183087244
30
6.4123582680222e-30
11
7.8185933913835006
21
-2.4999997183086631
31
1.8797076257219422e-30
0
ARC
5
211
100
AcDbEntity
8
0
100
AcDbCircle
10
6.4543925164480918
20
-4.6122882704665091
30
-3.944304526105059e-30
40
2.5145192293461638
210
-9.7983465872174752e-32
220
1.1077083882250574e-32
230
1
100
AcDbArc
50
-6.4499342953049856
51
57.144000152423203
0
SPLINE
5
212
100
AcDbEntity
8
0
100
AcDbSpline
70
0
71
3
72
12
73
8
74
0
42
0.000000001
43
0.0000000001
44
0.0000000001
40
0
40
0
40
0
40
0
40
0.33017162006659362
40
0.33017162006659362
40
0.47266574053793631
40
0.47266574053793631
40
0.60490308772610335
40
0.60490308772610335
40
0.60490308772610335
40
0.60490308772610335
10
10.499472251627672
20
-9.4677064667059074
30
0
10
9.928728039713798
20
-8.5266911007408552
30
1.9721522630525295e-30
10
9.5344405625346305
20
-7.6405657825033035
30
0
10
9.1775388352185203
20
-6.5179082779687558
30
0
10
9.0912077272822032
20
-6.1798413739233027
30
0
10
8.9722837457637326
20
-5.5281130209369689
30
0
10
8.9232139156418064
20
-5.1581956757097203
30
1.9721522630525295e-30
10
8.952995831307927
20
-4.8947567283926485
30
0
0
ARC
5
213
100
AcDbEntity
8
0
100
AcDbCircle
10
11.497795905664738
20
17.51383073714387
30
7.8886090522107136e-30
40
27.000000000017401
210
-3.5370683957843675e-32
220
-2.9106190660758967e-31
230
1
100
AcDbArc
50
267.88100839275319
51
272.11899160724636
0
SPLINE
5
214
100
AcDbEntity
8
0
100
AcDbSpline
70
0
71
3
72
12
73
8
74
0
42
0.000000001
43
0.0000000001
44
0.0000000001
40
0
40
0
40
0
40
0
40
0.069666853523873418
40
0.069666853523873418
40
0.18224377971055777
40
0.18224377971055777
40
0.29033000190867458
40
0.29033000190867458
40
0.29033000190867458
40
0.29033000190867458
10
14.042595980021336
20
-4.8947567283926574
30
0
10
14.068682727809534
20
-5.1255096944986001
30
0
10
14.024105906829391
20
-5.4641313897379007
30
0
10
13.963707151605877
20
-5.89224646930818
30
0
10
13.86617009211459
20
-6.4556420849251417
30
0
10
13.293916829939455
20
-8.0220676588219497
30
0
10
12.918907836517864
20
-8.77063366819268
30
0
10
12.496119559701551
20
-9.4677064667059074
30
0
0
ARC
5
215
100
AcDbEntity
8
0
100
AcDbCircle
10
16.541199294882222
20
-4.6122882704670243
30
-3.944304526105059e-30
40
2.5145192293471657
210
1.1936932558430488e-30
220
-2.0300348646728236e-30
230
1
100
AcDbArc
50
122.85599984759087
51
186.44993429529083
0
LWPOLYLINE
5
216
100
AcDbEntity
8
0
100
AcDbPolyline
90
4
70
1
43
0.0
10
100.00000006687019
20
2.5000002816912481
10
120.00000006687019
20
2.5000002816912481
10
120.00000006687019
20
-17.499999718308747
10
100.00000006687019
20
-17.499999718308757
0
CIRCLE
5
217
100
AcDbEntity
8
0
100
AcDbCircle
10
110.00000006687019
20
-7.4999997183087483
30
0
40
5
210
0
220
0
230
1
0
ENDSEC
0
SECTION
2
OBJECTS
0
DICTIONARY
5
C
100
AcDbDictionary
3
ACAD_GROUP
350
D
3
ACAD_MLINESTYLE
350
17
0
DICTIONARY
5
D
100
AcDbDictionary
0
DICTIONARY
5
1A
330
C
100
AcDbDictionary
0
DICTIONARY
5
17
100
AcDbDictionary
0
ENDSEC
0
EOF
